<svg width="165" height="164" viewBox="0 0 165 164" fill="none" xmlns="http://www.w3.org/2000/svg">
<line y1="-1.5" x2="19.1431" y2="-1.5" transform="matrix(0.648536 0.761184 -0.587484 0.809236 30.965 40.4286)" stroke="black" stroke-width="3"/>
<line y1="-1.5" x2="19.1431" y2="-1.5" transform="matrix(0.648536 0.761184 -0.587484 0.809236 30.965 40.4286)" stroke="black" stroke-width="3"/>
<line y1="-1.5" x2="42.1014" y2="-1.5" transform="matrix(0.589766 -0.807574 0.646304 0.76308 43.38 55)" stroke="black" stroke-width="3"/>
<line y1="-1.5" x2="19.1431" y2="-1.5" transform="matrix(0.648536 0.761184 -0.587484 0.809236 30.965 82.4286)" stroke="black" stroke-width="3"/>
<line y1="-1.5" x2="19.1431" y2="-1.5" transform="matrix(0.648536 0.761184 -0.587484 0.809236 30.965 82.4286)" stroke="black" stroke-width="3"/>
<line y1="-1.5" x2="42.1014" y2="-1.5" transform="matrix(0.589766 -0.807574 0.646304 0.76308 43.38 97)" stroke="black" stroke-width="3"/>
<line y1="-1.5" x2="19.1431" y2="-1.5" transform="matrix(0.648536 0.761184 -0.587484 0.809236 30.965 124.429)" stroke="black" stroke-width="3"/>
<line y1="-1.5" x2="19.1431" y2="-1.5" transform="matrix(0.648536 0.761184 -0.587484 0.809236 30.965 124.429)" stroke="black" stroke-width="3"/>
<line y1="-1.5" x2="42.1014" y2="-1.5" transform="matrix(0.589766 -0.807574 0.646304 0.76308 43.38 139)" stroke="black" stroke-width="3"/>
<line x1="10.5" y1="12.9956" x2="10.5294" y2="2.99601" stroke="black" stroke-width="3"/>
<line x1="9" y1="1.5" x2="161.8" y2="1.5" stroke="black" stroke-width="3"/>
<line x1="163.3" x2="163.3" y2="161" stroke="black" stroke-width="3"/>
<line x1="164.665" y1="162.5" x2="11.865" y2="162.5" stroke="black" stroke-width="3"/>
<line x1="10.3651" y1="163.98" x2="10.5001" y2="153.98" stroke="black" stroke-width="3"/>
<line x1="10.5" y1="31" x2="10.5" y2="51" stroke="black" stroke-width="3"/>
<line x1="10.5" y1="75" x2="10.5" y2="95" stroke="black" stroke-width="3"/>
<line x1="10.5" y1="117" x2="10.5" y2="137" stroke="black" stroke-width="3"/>
<line x1="68.21" y1="38.5" x2="143.655" y2="38.5" stroke="black" stroke-width="3"/>
<line x1="68.21" y1="80.5" x2="143.655" y2="80.5" stroke="black" stroke-width="3"/>
<line x1="68.21" y1="122.5" x2="143.655" y2="122.5" stroke="black" stroke-width="3"/>
<line x1="19" y1="23" y2="23" stroke="black" stroke-width="4"/>
<line x1="19" y1="65" y2="65" stroke="black" stroke-width="4"/>
<line x1="19" y1="107" y2="107" stroke="black" stroke-width="4"/>
<line x1="19" y1="144" y2="144" stroke="black" stroke-width="4"/>
</svg>
